<svg width="268" height="70" viewBox="0 0 268 70" fill="none" xmlns="http://www.w3.org/2000/svg">
<path fill-rule="evenodd" clip-rule="evenodd" d="M37.5433 5.6422C37.8164 3.20276 36.0869 0.99998 33.6475 0.726908C31.208 0.435631 29.0052 2.18329 28.7322 4.62273C28.4045 7.40806 28.8596 10.7395 29.4422 14.162C31.0624 14.6536 32.628 15.3636 34.0844 16.201C35.65 12.5054 37.1792 8.84624 37.5433 5.6422ZM54.674 16.3466C53.7091 14.0892 51.0876 13.0697 48.8302 14.0346C45.8629 15.3271 42.7863 17.8576 39.6914 20.4609C40.8566 21.6078 41.9488 22.9003 42.8773 24.3021C46.3908 23.8652 49.7587 23.3372 52.362 22.2085C54.6194 21.2073 55.657 18.5858 54.674 16.3466ZM47.1918 4.44068C45.2257 2.9843 42.4404 3.38481 40.984 5.35092C38.763 8.33651 37.2702 12.7967 35.65 17.1476C36.1961 17.5117 36.7059 17.8758 37.1974 18.2581C37.5615 18.5494 37.9438 18.8589 38.3261 19.1683C42.0399 16.3648 45.8993 13.6341 48.1203 10.6485C49.5766 8.6824 49.1579 5.89706 47.1918 4.44068Z" fill="white"/>
<path d="M38.7449 40.0856C37.3795 41.5602 35.9231 42.9256 34.3757 44.2545C32.2093 46.1296 30.0066 47.9501 27.7674 49.6978C25.3643 48.2232 23.6349 47.4768 23.3436 47.8591C23.0887 48.205 24.09 49.4793 25.8923 51.1359C19.8483 55.6325 13.4584 59.6012 6.59521 62.8598C5.52113 63.3696 4.39243 63.7337 3.28194 64.1342C2.99066 64.2434 2.68118 64.2434 2.55375 64.2616C0.80609 64.4618 0.278152 63.9885 0.350971 62.3865C0.569428 57.3984 2.11683 52.7198 3.71886 48.0593C4.15577 46.785 4.61089 45.5107 5.08421 44.2363C7.50545 45.7109 9.2349 46.4755 9.52618 46.0932C9.83566 45.6745 8.37928 43.9997 5.93984 41.9061C7.6875 37.3913 9.63541 32.9494 11.9292 28.6895C16.5168 32.0937 20.5947 34.3329 21.0498 33.714C21.5049 33.095 18.137 29.7999 13.4948 26.3592L13.2946 26.2136C14.0956 24.8482 14.933 23.4829 15.825 22.1539C16.9355 20.4791 18.3009 18.9499 19.648 17.4571C21.4503 15.4728 23.7805 14.7992 26.3838 15.3818C34.7216 17.2386 40.5107 22.0265 43.2414 30.2369C43.7876 31.9117 43.2961 33.5501 42.4404 35.0611C41.8579 36.0806 41.2207 37.0454 40.5107 37.9557C36.1052 34.7334 32.2822 32.6581 31.8452 33.2407C31.4265 33.8232 34.4667 36.827 38.7449 40.0856Z" fill="white"/>
<path d="M92.4489 10.4026C86.678 10.4026 82.9278 12.7146 80.6522 17.1019H80.5248V14.3712C80.5248 12.4051 78.9228 10.8213 76.9567 10.8213C74.9906 10.8213 73.4067 12.4051 73.4067 14.3712V44.573C73.4067 46.5391 74.9906 48.1411 76.9567 48.1411H77.3026C79.2687 48.1411 80.8707 46.5391 80.8707 44.573V26.5866C80.8707 20.7065 84.2386 16.7925 89.8639 16.7925C95.3253 16.7925 97.9468 19.9601 97.9468 25.6218V44.573C97.9468 46.5391 99.5306 48.1411 101.497 48.1411H101.843C103.809 48.1411 105.393 46.5391 105.393 44.573V24.22C105.393 15.6274 100.696 10.4026 92.4489 10.4026Z" fill="white"/>
<path d="M128.422 10.3297C117.99 10.3297 111.182 17.9393 111.182 29.6086C111.182 41.296 117.917 48.578 128.731 48.578C135.43 48.578 140.965 45.6106 143.459 40.9866C144.387 39.2935 143.113 37.2 141.183 37.2H139.29C138.343 37.2 137.524 37.7461 137.032 38.5653C135.594 41.0412 132.572 42.534 128.877 42.534C122.76 42.534 118.7 38.2741 118.7 31.8114V31.3744H142.548C143.968 31.3744 145.134 30.2093 145.134 28.7894V28.7529C145.134 17.4478 138.671 10.3297 128.422 10.3297ZM118.737 26.0768C119.155 20.3423 123.033 16.4101 128.403 16.4101C133.828 16.4101 137.506 20.2695 137.67 26.0768H118.737Z" fill="white"/>
<path d="M179.85 35.5979H177.866C176.792 35.5979 175.863 36.2715 175.463 37.2728C174.17 40.5679 171.221 42.3337 167.034 42.3337C161.045 42.3337 157.003 37.5094 157.003 29.4811C157.003 21.6349 160.99 16.6286 166.998 16.6286C171.33 16.6286 174.225 18.7767 175.408 21.8351C175.809 22.8546 176.737 23.5646 177.848 23.5646H179.832C181.561 23.5646 182.854 21.8715 182.29 20.2331C180.378 14.6078 174.917 10.3297 166.925 10.3297C156.384 10.3297 149.43 17.8665 149.43 29.4811C149.43 41.296 156.402 48.578 166.998 48.578C174.589 48.578 180.232 44.8642 182.308 38.984C182.89 37.3274 181.616 35.5979 179.85 35.5979Z" fill="white"/>
<path d="M202.206 42.2791C202.078 42.2609 201.932 42.2427 201.805 42.2427C199.347 41.9514 198.2 40.4222 198.2 37.5459V16.7014H202.406C204.044 16.7014 205.355 15.3724 205.355 13.7522C205.355 12.132 204.044 10.8212 202.406 10.8212H198.2V6.14261C198.2 5.12314 197.782 4.1947 197.108 3.52112C196.435 2.84754 195.524 2.42883 194.487 2.42883C192.448 2.42883 190.791 4.10367 190.791 6.14261V10.8212H188.57C186.95 10.8212 185.621 12.132 185.621 13.7522C185.621 15.3724 186.95 16.7014 188.57 16.7014H190.791V38.3105C190.791 45.5196 193.667 48.3777 201.131 48.3777C201.15 48.3777 201.168 48.3777 201.168 48.3777C202.023 48.3777 202.806 48.1228 203.462 47.6677C203.48 47.6677 203.498 47.6495 203.498 47.6495C204.263 47.1034 204.772 46.2113 204.772 45.2101C204.772 43.7173 203.662 42.4611 202.206 42.2791Z" fill="white"/>
<path d="M226.418 10.3297C220.592 10.3297 215.786 12.6963 213.329 16.3555C212.928 16.9745 212.728 17.648 212.728 18.3034C212.728 20.1239 214.184 21.8169 216.241 21.8169C217.443 21.8169 218.59 21.1798 219.154 20.1239C220.356 17.8665 222.923 16.4829 226.218 16.4829C231.206 16.4829 234.046 18.8313 234.046 23.0913V23.5464C234.046 24.9117 232.99 26.0404 231.624 26.1133L223.978 26.5502C214.767 27.1327 209.724 30.9193 209.724 37.4548C209.724 44.1178 214.876 48.5051 222.34 48.5051C227.419 48.5051 232.061 45.9747 234.119 41.915H234.282V44.5729C234.282 45.556 234.683 46.448 235.32 47.1034C235.975 47.7405 236.867 48.141 237.851 48.141C239.817 48.141 241.4 46.539 241.4 44.5729V22.5451C241.4 15.154 235.52 10.3297 226.418 10.3297ZM234.046 34.1234C234.046 39.0204 229.859 42.5704 224.324 42.5704C220.028 42.5704 217.243 40.5132 217.243 37.3092C217.243 34.0141 219.901 32.1208 224.98 31.8114L234.046 31.1924V34.1234Z" fill="white"/>
<path d="M265.158 10.439C260.752 10.439 257.33 12.9512 256.146 17.1019H256.019V14.3712C256.019 12.4051 254.417 10.8213 252.469 10.8213C250.503 10.8213 248.901 12.4051 248.901 14.3712V44.4091C248.901 45.4286 249.32 46.3752 249.993 47.0488C250.667 47.7224 251.595 48.1411 252.633 48.1411C254.69 48.1411 256.365 46.4662 256.365 44.4091V25.8766C256.365 20.6154 259.46 17.2111 264.375 17.2111C264.575 17.2111 264.794 17.2111 264.994 17.2293C266.523 17.284 267.761 16.0278 267.761 14.4986V13.0605C267.761 11.6223 266.596 10.439 265.158 10.439Z" fill="white"/>
<path d="M204.773 45.2101C204.773 46.2113 204.263 47.1034 203.498 47.6495C203.498 47.6495 203.48 47.6677 203.462 47.6677C202.988 47.9954 202.424 48.1774 201.805 48.1774C200.149 48.1774 198.82 46.8485 198.82 45.2101C198.82 43.5716 200.149 42.2427 201.805 42.2427C201.933 42.2427 202.078 42.2609 202.206 42.2791C203.662 42.4611 204.773 43.7173 204.773 45.2101Z" fill="white"/>
<path d="M80.9087 63.4228C80.19 64.1321 79.3173 64.4868 78.2907 64.4868C77.264 64.4868 76.3913 64.1321 75.6727 63.4228C74.9633 62.7135 74.6087 61.8408 74.6087 60.8048C74.6087 59.7688 74.9633 58.8961 75.6727 58.1868C76.3913 57.4775 77.264 57.1228 78.2907 57.1228C79.3173 57.1228 80.19 57.4775 80.9087 58.1868C81.6273 58.8961 81.9867 59.7688 81.9867 60.8048C81.9867 61.8408 81.6273 62.7135 80.9087 63.4228ZM78.2907 63.2968C78.9907 63.2968 79.5787 63.0588 80.0547 62.5828C80.5307 62.1068 80.7687 61.5141 80.7687 60.8048C80.7687 60.0955 80.5307 59.5028 80.0547 59.0268C79.5787 58.5508 78.9907 58.3128 78.2907 58.3128C77.6 58.3128 77.0167 58.5508 76.5407 59.0268C76.0647 59.5028 75.8267 60.0955 75.8267 60.8048C75.8267 61.5141 76.0647 62.1068 76.5407 62.5828C77.0167 63.0588 77.6 63.2968 78.2907 63.2968ZM92.4085 57.1228C93.2299 57.1228 93.8879 57.3841 94.3825 57.9068C94.8772 58.4201 95.1245 59.1201 95.1245 60.0068V64.3048H93.9065V60.0768C93.9065 59.5075 93.7525 59.0688 93.4445 58.7608C93.1365 58.4435 92.7119 58.2848 92.1705 58.2848C91.5639 58.2848 91.0739 58.4761 90.7005 58.8588C90.3272 59.2321 90.1405 59.8108 90.1405 60.5948V64.3048H88.9225V57.3048H90.1405V58.3128C90.6352 57.5195 91.3912 57.1228 92.4085 57.1228ZM102.325 64.3048V54.0848H103.543V64.3048H102.325ZM111.517 56.0308C111.284 56.0308 111.088 55.9515 110.929 55.7928C110.77 55.6341 110.691 55.4428 110.691 55.2188C110.691 54.9948 110.77 54.8035 110.929 54.6448C111.088 54.4768 111.284 54.3928 111.517 54.3928C111.741 54.3928 111.932 54.4768 112.091 54.6448C112.25 54.8035 112.329 54.9948 112.329 55.2188C112.329 55.4428 112.25 55.6341 112.091 55.7928C111.932 55.9515 111.741 56.0308 111.517 56.0308ZM110.901 64.3048V57.3048H112.119V64.3048H110.901ZM122.963 57.1228C123.785 57.1228 124.443 57.3841 124.937 57.9068C125.432 58.4201 125.679 59.1201 125.679 60.0068V64.3048H124.461V60.0768C124.461 59.5075 124.307 59.0688 123.999 58.7608C123.691 58.4435 123.267 58.2848 122.725 58.2848C122.119 58.2848 121.629 58.4761 121.255 58.8588C120.882 59.2321 120.695 59.8108 120.695 60.5948V64.3048H119.477V57.3048H120.695V58.3128C121.19 57.5195 121.946 57.1228 122.963 57.1228ZM133.734 61.3648C133.855 61.9901 134.14 62.4755 134.588 62.8208C135.045 63.1661 135.605 63.3388 136.268 63.3388C137.192 63.3388 137.864 62.9981 138.284 62.3168L139.32 62.9048C138.638 63.9595 137.612 64.4868 136.24 64.4868C135.129 64.4868 134.224 64.1415 133.524 63.4508C132.833 62.7508 132.488 61.8688 132.488 60.8048C132.488 59.7501 132.828 58.8728 133.51 58.1728C134.191 57.4728 135.073 57.1228 136.156 57.1228C137.182 57.1228 138.018 57.4868 138.662 58.2148C139.315 58.9335 139.642 59.8015 139.642 60.8188C139.642 60.9961 139.628 61.1781 139.6 61.3648H133.734ZM136.156 58.2708C135.502 58.2708 134.961 58.4575 134.532 58.8308C134.102 59.1948 133.836 59.6848 133.734 60.3008H138.41C138.307 59.6381 138.046 59.1341 137.626 58.7888C137.206 58.4435 136.716 58.2708 136.156 58.2708ZM161.352 57.3048H162.556V64.0108C162.556 65.0468 162.206 65.8495 161.506 66.4188C160.806 66.9975 159.966 67.2868 158.986 67.2868C158.202 67.2868 157.525 67.1375 156.956 66.8388C156.386 66.5495 155.957 66.1295 155.668 65.5788L156.732 64.9768C157.114 65.7608 157.875 66.1528 159.014 66.1528C159.742 66.1528 160.311 65.9615 160.722 65.5788C161.142 65.1961 161.352 64.6735 161.352 64.0108V63.0168C160.736 63.9501 159.858 64.4168 158.72 64.4168C157.721 64.4168 156.876 64.0621 156.186 63.3528C155.495 62.6435 155.15 61.7801 155.15 60.7628C155.15 59.7455 155.495 58.8868 156.186 58.1868C156.876 57.4775 157.721 57.1228 158.72 57.1228C159.868 57.1228 160.745 57.5848 161.352 58.5088V57.3048ZM157.082 62.5408C157.558 63.0168 158.15 63.2548 158.86 63.2548C159.569 63.2548 160.162 63.0168 160.638 62.5408C161.114 62.0648 161.352 61.4721 161.352 60.7628C161.352 60.0628 161.114 59.4748 160.638 58.9988C160.162 58.5228 159.569 58.2848 158.86 58.2848C158.15 58.2848 157.558 58.5228 157.082 58.9988C156.606 59.4748 156.368 60.0628 156.368 60.7628C156.368 61.4721 156.606 62.0648 157.082 62.5408ZM171.119 58.4808C171.52 57.6128 172.248 57.1788 173.303 57.1788V58.4528C172.706 58.4248 172.192 58.5835 171.763 58.9288C171.334 59.2741 171.119 59.8295 171.119 60.5948V64.3048H169.901V57.3048H171.119V58.4808ZM185.52 63.4228C184.801 64.1321 183.929 64.4868 182.902 64.4868C181.875 64.4868 181.003 64.1321 180.284 63.4228C179.575 62.7135 179.22 61.8408 179.22 60.8048C179.22 59.7688 179.575 58.8961 180.284 58.1868C181.003 57.4775 181.875 57.1228 182.902 57.1228C183.929 57.1228 184.801 57.4775 185.52 58.1868C186.239 58.8961 186.598 59.7688 186.598 60.8048C186.598 61.8408 186.239 62.7135 185.52 63.4228ZM182.902 63.2968C183.602 63.2968 184.19 63.0588 184.666 62.5828C185.142 62.1068 185.38 61.5141 185.38 60.8048C185.38 60.0955 185.142 59.5028 184.666 59.0268C184.19 58.5508 183.602 58.3128 182.902 58.3128C182.211 58.3128 181.628 58.5508 181.152 59.0268C180.676 59.5028 180.438 60.0955 180.438 60.8048C180.438 61.5141 180.676 62.1068 181.152 62.5828C181.628 63.0588 182.211 63.2968 182.902 63.2968ZM196.824 64.4868C195.769 64.4868 194.892 64.1368 194.192 63.4368C193.492 62.7275 193.142 61.8501 193.142 60.8048C193.142 59.7595 193.492 58.8868 194.192 58.1868C194.892 57.4775 195.769 57.1228 196.824 57.1228C197.515 57.1228 198.135 57.2908 198.686 57.6268C199.237 57.9535 199.647 58.3968 199.918 58.9568L198.896 59.5448C198.719 59.1715 198.443 58.8728 198.07 58.6488C197.706 58.4248 197.291 58.3128 196.824 58.3128C196.124 58.3128 195.536 58.5508 195.06 59.0268C194.593 59.5028 194.36 60.0955 194.36 60.8048C194.36 61.5048 194.593 62.0928 195.06 62.5688C195.536 63.0448 196.124 63.2828 196.824 63.2828C197.291 63.2828 197.711 63.1755 198.084 62.9608C198.457 62.7368 198.742 62.4381 198.938 62.0648L199.974 62.6668C199.675 63.2175 199.246 63.6608 198.686 63.9968C198.126 64.3235 197.505 64.4868 196.824 64.4868ZM207.435 61.3648C207.556 61.9901 207.841 62.4755 208.289 62.8208C208.746 63.1661 209.306 63.3388 209.969 63.3388C210.893 63.3388 211.565 62.9981 211.985 62.3168L213.021 62.9048C212.339 63.9595 211.313 64.4868 209.941 64.4868C208.83 64.4868 207.925 64.1415 207.225 63.4508C206.534 62.7508 206.189 61.8688 206.189 60.8048C206.189 59.7501 206.529 58.8728 207.211 58.1728C207.892 57.4728 208.774 57.1228 209.857 57.1228C210.883 57.1228 211.719 57.4868 212.363 58.2148C213.016 58.9335 213.343 59.8015 213.343 60.8188C213.343 60.9961 213.329 61.1781 213.301 61.3648H207.435ZM209.857 58.2708C209.203 58.2708 208.662 58.4575 208.233 58.8308C207.803 59.1948 207.537 59.6848 207.435 60.3008H212.111C212.008 59.6381 211.747 59.1341 211.327 58.7888C210.907 58.4435 210.417 58.2708 209.857 58.2708ZM221.461 58.4808C221.862 57.6128 222.59 57.1788 223.645 57.1788V58.4528C223.048 58.4248 222.534 58.5835 222.105 58.9288C221.676 59.2741 221.461 59.8295 221.461 60.5948V64.3048H220.243V57.3048H221.461V58.4808ZM230.953 56.0308C230.719 56.0308 230.523 55.9515 230.365 55.7928C230.206 55.6341 230.127 55.4428 230.127 55.2188C230.127 54.9948 230.206 54.8035 230.365 54.6448C230.523 54.4768 230.719 54.3928 230.953 54.3928C231.177 54.3928 231.368 54.4768 231.527 54.6448C231.685 54.8035 231.765 54.9948 231.765 55.2188C231.765 55.4428 231.685 55.6341 231.527 55.7928C231.368 55.9515 231.177 56.0308 230.953 56.0308ZM230.337 64.3048V57.3048H231.555V64.3048H230.337ZM239.767 61.3648C239.888 61.9901 240.173 62.4755 240.621 62.8208C241.078 63.1661 241.638 63.3388 242.301 63.3388C243.225 63.3388 243.897 62.9981 244.317 62.3168L245.353 62.9048C244.671 63.9595 243.645 64.4868 242.273 64.4868C241.162 64.4868 240.257 64.1415 239.557 63.4508C238.866 62.7508 238.521 61.8688 238.521 60.8048C238.521 59.7501 238.861 58.8728 239.543 58.1728C240.224 57.4728 241.106 57.1228 242.189 57.1228C243.215 57.1228 244.051 57.4868 244.695 58.2148C245.348 58.9335 245.675 59.8015 245.675 60.8188C245.675 60.9961 245.661 61.1781 245.633 61.3648H239.767ZM242.189 58.2708C241.535 58.2708 240.994 58.4575 240.565 58.8308C240.135 59.1948 239.869 59.6848 239.767 60.3008H244.443C244.34 59.6381 244.079 59.1341 243.659 58.7888C243.239 58.4435 242.749 58.2708 242.189 58.2708ZM256.178 58.4808H254.316V62.2748C254.316 62.6201 254.381 62.8675 254.512 63.0168C254.652 63.1568 254.862 63.2315 255.142 63.2408C255.422 63.2408 255.767 63.2315 256.178 63.2128V64.3048C255.114 64.4448 254.334 64.3608 253.84 64.0528C253.345 63.7355 253.098 63.1428 253.098 62.2748V58.4808H251.712V57.3048H253.098V55.7088L254.316 55.3448V57.3048H256.178V58.4808Z" fill="white"/>
</svg>
